<?xml version="1.0" encoding="iso-8859-1"?>
<!-- Generator: Adobe Illustrator 19.0.0, SVG Export Plug-In . SVG Version: 6.00 Build 0)  -->
<svg version="1.1" id="Capa_1" xmlns="http://www.w3.org/2000/svg" xmlns:xlink="http://www.w3.org/1999/xlink" x="0px" y="0px"
	 viewBox="0 0 512 512" style="enable-background:new 0 0 512 512;" xml:space="preserve">
<path style="fill:#C69A6A;" d="M475.899,256c0,9.061-0.505,18.006-1.496,26.806c-13.315,118.8-114.099,211.144-236.454,211.144
	c-84.04,0-157.892-43.559-200.227-109.34c-9.906-15.384-18.084-31.992-24.271-49.532C4.74,310.33,0,283.719,0,256
	C0,124.584,106.533,18.051,237.949,18.051c115.148,0,211.192,81.796,233.2,190.457C474.267,223.853,475.899,239.732,475.899,256z"/>
<path style="fill:#F9EED7;" d="M417.499,90.106v267.873H46.997c-8.78,0-16.724-3.555-22.464-9.304
	c-5.75-5.75-9.304-13.685-9.304-22.464c0-7.245,10.839-48.804,23.572-95.092C56.875,165.385,78.756,90.106,78.756,90.106
	S417.499,90.106,417.499,90.106z"/>
<polygon style="fill:#D6C8B0;" points="239.678,90.106 222.759,114.163 117.615,263.673 76.901,235.041 96.297,207.468 
	118.285,176.214 140.264,144.96 162.243,113.697 178.831,90.106 "/>
<polygon style="fill:#FFD15C;" points="193.659,82.454 215.639,51.198 235.035,23.621 275.745,52.251 232.203,114.167 
	127.056,263.677 86.346,235.046 105.74,207.468 127.721,176.212 149.702,144.956 171.684,113.701 191.491,85.536 "/>
<path style="fill:#E8DBC4;" d="M58.031,231.122v126.856H46.996c-8.777,0-16.719-3.554-22.466-9.301
	c-5.748-5.748-9.301-13.689-9.301-22.466c0-7.246,10.843-48.807,23.569-95.088L58.031,231.122L58.031,231.122z"/>
<g>
	
		<rect x="213.885" y="48.722" transform="matrix(-0.818 -0.5753 0.5753 -0.818 373.7007 231.7527)" style="fill:#EDBB4C;" width="19.267" height="16.056"/>
	
		<rect x="147.941" y="142.478" transform="matrix(-0.818 -0.5753 0.5753 -0.818 199.882 364.2625)" style="fill:#EDBB4C;" width="19.267" height="16.056"/>
	
		<rect x="169.932" y="111.226" transform="matrix(-0.818 -0.5753 0.5753 -0.818 257.8395 320.0976)" style="fill:#EDBB4C;" width="19.267" height="16.056"/>
	
		<rect x="191.901" y="79.98" transform="matrix(-0.818 -0.5753 0.5753 -0.818 315.7543 275.9322)" style="fill:#EDBB4C;" width="19.267" height="16.056"/>
	
		<rect x="103.979" y="204.997" transform="matrix(-0.818 -0.5753 0.5753 -0.818 83.995 452.6295)" style="fill:#EDBB4C;" width="19.267" height="16.056"/>
	
		<rect x="125.967" y="173.736" transform="matrix(-0.818 -0.5753 0.5753 -0.818 141.9533 408.4476)" style="fill:#EDBB4C;" width="19.267" height="16.056"/>
</g>
<g>
	<path style="fill:#D6C8B0;" d="M78.753,90.105v204.338H46.996c-17.543,0-31.768,14.225-31.768,31.768V58.337
		c0-4.377,0.889-8.562,2.494-12.363c1.605-3.799,3.939-7.225,6.807-10.104c5.748-5.748,13.689-9.301,22.466-9.301h31.757
		C78.753,26.569,78.753,90.105,78.753,90.105z"/>
	<path style="fill:#D6C8B0;" d="M261.443,164.783v193.195h156.056v-37.139L261.443,164.783z M316.006,354.948v-62.459l62.459,62.459
		H316.006z"/>
</g>
<path style="fill:#34ABE0;" d="M512,409.514H267.27v-51.159v-193.57l193.571,193.571L512,409.514z M321.837,354.947h62.46
	l-62.46-62.46V354.947z"/>
<path style="fill:#FF525D;" d="M292.652,101.812h-0.375c0-10.125,2.301-20.23,6.903-29.542h17.8h101.222v0.011
	c-4.067,9.419,3.8,19.469,3.8,29.531H292.652z"/>
<path style="fill:#EF4152;" d="M422.003,101.812c0,10.05-7.867,20.101-3.8,29.52v0.011H316.981h-17.8
	c-4.603-9.301-6.903-19.426-6.903-29.531h0.375C292.652,101.812,422.003,101.812,422.003,101.812z"/>
<path style="fill:#279FC9;" d="M261.525,102.115v-0.61c0.021-3.543,0.674-6.936,1.862-10.072c-0.011,0,0-0.011,0-0.011
	c4.217-11.206,15.177-19.149,27.85-19.149h11.154c-4.603,9.312-6.903,19.416-6.903,29.541c0,2.933,0.192,5.855,0.589,8.766
	c0.942,7.139,3.051,14.16,6.315,20.765h-11.154C275.022,131.346,261.6,118.341,261.525,102.115z"/>
<path style="fill:#34ABE0;" d="M263.387,91.432c-0.011,0,0-0.011,0-0.011c4.217-11.206,15.177-19.149,27.85-19.149h11.154
	c-4.603,9.312-6.903,19.416-6.903,29.541c0,2.933,0.192,5.855,0.589,8.766h-4.838C278.565,110.581,267.605,102.638,263.387,91.432z"
	/>
<path style="fill:#E8DBC4;" d="M412.088,101.815c0-10.061,2.044-20.111,6.112-29.531v-0.011l20.669,13.861
	c-3.029,4.485-4.774,9.869-4.774,15.68c0,5.801,1.755,11.196,4.774,15.67l-20.669,13.86v-0.011
	C414.133,121.915,412.088,111.865,412.088,101.815z"/>
<path style="fill:#D6C8B0;" d="M412.088,101.815h50.167l-23.387,15.67l-20.669,13.86v-0.011
	C414.133,121.915,412.088,111.865,412.088,101.815z"/>
<path style="fill:#FF525D;" d="M434.097,101.815c0-5.812,1.744-11.195,4.774-15.68l23.387,15.68l-23.387,15.67
	C435.852,113.011,434.097,107.616,434.097,101.815z"/>
<g>
</g>
<g>
</g>
<g>
</g>
<g>
</g>
<g>
</g>
<g>
</g>
<g>
</g>
<g>
</g>
<g>
</g>
<g>
</g>
<g>
</g>
<g>
</g>
<g>
</g>
<g>
</g>
<g>
</g>
</svg>
